HIERARCHY
ROOT Hips
{
  OFFSET 263.056 91.6644 -274.608
  CHANNELS 6 Xposition Yposition Zposition Zrotation Xrotation Yrotation
  JOINT LeftUpLeg
  {
    OFFSET 8.64259 1.95398 -2.38835
    CHANNELS 3 Zrotation Xrotation Yrotation
    JOINT LeftLeg
    {
      OFFSET 43.7702 0 0
      CHANNELS 3 Zrotation Xrotation Yrotation
      JOINT LeftFoot
      {
        OFFSET 40.6238 0 0
        CHANNELS 3 Zrotation Xrotation Yrotation
        JOINT LeftToeBase
        {
          OFFSET 12.7242 0 0
          CHANNELS 3 Zrotation Xrotation Yrotation
          End Site
          {
            OFFSET 0 0 0
          }
        }
      }
    }
  }
  JOINT RightUpLeg
  {
    OFFSET -8.2249 1.95398 -2.59336
    CHANNELS 3 Zrotation Xrotation Yrotation
    JOINT RightLeg
    {
      OFFSET 43.5653 0 0
      CHANNELS 3 Zrotation Xrotation Yrotation
      JOINT RightFoot
      {
        OFFSET 40.6238 0 0
        CHANNELS 3 Zrotation Xrotation Yrotation
        JOINT RightToeBase
        {
          OFFSET 12.7242 0 0
          CHANNELS 3 Zrotation Xrotation Yrotation
          End Site
          {
            OFFSET 0 0 0
          }
        }
      }
    }
  }
  JOINT Spine
  {
    OFFSET 0.165834 0.87714 6.61349
    CHANNELS 3 Zrotation Xrotation Yrotation
    JOINT Spine1
    {
      OFFSET 7.38963 1.71661e-005 0
      CHANNELS 3 Zrotation Xrotation Yrotation
      JOINT Spine2
      {
        OFFSET 11.9445 1.14441e-005 0
        CHANNELS 3 Zrotation Xrotation Yrotation
        JOINT Spine3
        {
          OFFSET 14.7254 4.19617e-005 0
          CHANNELS 3 Zrotation Xrotation Yrotation
          JOINT Spine4
          {
            OFFSET 10.9679 0 0
            CHANNELS 3 Zrotation Xrotation Yrotation
            JOINT RightShoulder
            {
              OFFSET 2.46616 -1.6653 3.69651
              CHANNELS 3 Zrotation Xrotation Yrotation
              JOINT RightArm
              {
                OFFSET 13.0012 0 0
                CHANNELS 3 Zrotation Xrotation Yrotation
                JOINT RightForeArm
                {
                  OFFSET 28.7848 1.52588e-005 0
                  CHANNELS 3 Zrotation Xrotation Yrotation
                  JOINT RightHand
                  {
                    OFFSET 26.5688 1.52588e-005 0
                    CHANNELS 3 Zrotation Xrotation Yrotation
                    End Site
                    {
                      OFFSET 0 0 0
                    }
                  }
                }
              }
            }
            JOINT LeftShoulder
            {
              OFFSET 2.38034 -1.29275 -3.7523
              CHANNELS 3 Zrotation Xrotation Yrotation
              JOINT LeftArm
              {
                OFFSET 16.3182 6.10352e-005 0
                CHANNELS 3 Zrotation Xrotation Yrotation
                JOINT LeftForeArm
                {
                  OFFSET 27.0901 0 0
                  CHANNELS 3 Zrotation Xrotation Yrotation
                  JOINT LeftHand
                  {
                    OFFSET 24.5451 1.52588e-005 0
                    CHANNELS 3 Zrotation Xrotation Yrotation
                    End Site
                    {
                      OFFSET 0 0 0
                    }
                  }
                }
              }
            }
            JOINT Neck
            {
              OFFSET 5.0226 -0.0266342 0
              CHANNELS 3 Zrotation Xrotation Yrotation
              JOINT Head
              {
                OFFSET 6.69364 2.86102e-005 0
                CHANNELS 3 Zrotation Xrotation Yrotation
                End Site
                {
                  OFFSET 0 0 0
                }
              }
            }
          }
        }
      }
    }
  }
}
MOTION
Frames:	17
Frame Time:	0.0416667
-297.192 88.3049 -297.252 72.9267 -50.057 70.95 -168.645 47.0443 86.315 -48.9834 -79.3574 12.4742 51.3023 -10.4588 -121.163 19.3478 -33.0993 41.6438 136.658 49.0525 113.908 -5.29946 14.8664 19.741 10.3101 5.50629 21.0579 -4.5185 3.50098 -15.3225 1.29795 4.73545 -90.7826 17.4229 2.14894 -1.9746 5.75206 2.05999 -2.06726 -16.7917 2.64298 -1.23733 3.22091 2.64299 -1.23733 114.768 -61.0963 -64.8219 6.08919 -24.2213 29.9975 -170.032 -21.414 -58.2122 -9.89995 3.51746 97.565 -100.166 -57.4701 66.358 -50.988 11.2735 63.2374 7.97235 11.3776 -57.9919 27.0349 1.16724 0.420549 -19.9185 -4.9944 33.8713 5.01435 -5.34547 -20.9187 
-293.208 89.8157 -291.955 68.5369 -52.5698 66.4241 -165.108 44.7428 85.3085 -65.2208 -32.4369 0.302977 66.1734 -26.1388 -69.4605 22.1754 -15.6775 24.9403 114.295 30.0301 116.717 -5.19754 6.35476 41.462 6.27499 3.3444 17.688 -6.74769 4.6616 -17.8136 1.0963 5.97769 -90.2441 14.926 2.04607 -0.809473 3.25626 2.00844 -0.898776 -19.2914 2.19474 -0.156851 0.721299 2.1947 -0.156863 83.2125 -59.7698 -107.957 7.09214 -5.12716 28.3425 -169.217 -17.5057 -60.8068 -10.0259 3.70221 101.648 -99.2243 -54.1644 66.5298 -49.6412 8.31586 55.9194 9.8377 6.1008 -64.5002 22.8781 1.70222 3.58849 -15.014 -2.88774 24.0891 14.6407 -4.72907 -11.8174 
-288.537 91.1578 -286.032 62.5888 -50.1397 65.9862 -165.67 52.2889 86.7833 -58.1671 22.8841 -3.86142 45.8991 0.507182 14.2511 49.701 26.468 10.8673 103.43 19.3777 107.522 -0.490186 -5.34841 61.9076 6.19272 5.65173 14.8445 -6.69627 5.23914 -19.3407 1.43956 6.68651 -89.881 13.5095 2.91406 -0.124309 1.8418 2.90575 -0.252565 -20.7186 2.81659 0.757944 -0.705928 2.81659 0.757939 83.2495 -53.364 -109.944 16.8001 2.52572 14.5419 -171.114 -20.8094 -68.4582 -9.77114 4.4105 107.051 -99.0681 -45.4241 63.6692 -50.1246 9.44247 52.3859 9.36367 2.67975 -69.0135 22.1391 1.60688 3.44495 0.203708 -2.44357 5.45058 10.5836 -3.295 0.241027 
-282.461 95.4781 -280.779 66.333 -50.6881 68.175 -166.959 44.4792 85.9868 -35.749 20.9347 -3.78367 46.469 -6.06062 6.93846 46.8065 23.7016 14.2486 104.932 18.9913 87.3831 37.3816 -10.3328 85.0219 4.32888 3.82917 7.71375 -1.88488 3.61118 -16.1816 1.65297 7.60151 -89.5955 11.6677 3.47743 0.442224 0.00141207 3.4935 0.288568 -22.5657 3.18361 1.46791 -2.55307 3.18359 1.4679 86.8332 -43.9506 -107.511 26.5722 3.49306 7.15396 -172.001 -23.7011 -75.1825 -8.17756 6.65223 103.988 -99.1134 -40.4844 61.5669 -51.2795 7.4291 49.4572 7.08736 -0.285908 -71.0811 18.524 1.1427 2.27198 6.87542 -3.69525 3.42033 9.21072 -4.19062 0.862414 
-275.22 97.0532 -274.124 66.8751 -49.5072 69.0925 -167.578 39.7447 84.9946 -21.844 18.9244 -3.34072 45.2094 -6.15829 6.38505 49.7465 26.576 11.1545 136.473 60.1572 98.4894 -72.1279 -53.1581 15.9087 72.8107 -28.244 -9.64334 4.65868 2.28557 -13.6142 1.74347 7.83424 -89.4633 11.1979 3.71954 0.703247 -0.467814 3.74687 0.538628 -23.0375 3.33607 1.78973 -3.02482 3.33606 1.78972 89.1665 -39.8374 -104.913 31.6116 0.195136 4.74511 -173.149 -26.4825 -81.6331 -6.40233 8.2378 98.4462 -98.457 -36.6556 60.9409 -52.7365 5.84066 47.2291 5.34005 -2.03914 -72.9861 19.0205 0.781819 0.245974 7.55353 -4.73235 0.95001 10.5711 -4.54133 2.15814 
-268.516 97.4623 -267.965 67.29 -48.3731 72.0751 -167.611 36.7129 85.459 -14.8325 17.7058 -2.59648 43.3409 -6.95882 6.34833 50.0199 27.8973 13.7678 173.276 49.664 90.7524 -89.1261 -22.3215 -3.72795 105.496 -21.7589 -5.34835 4.88016 1.74862 -11.7441 1.61187 7.69768 -89.5957 11.4753 3.39592 0.459374 -0.191199 3.41286 0.309307 -22.7565 3.10071 1.45967 -2.74389 3.10074 1.45968 88.8807 -40.5066 -105.196 32.2749 -6.69022 7.23807 -177.251 -29.2734 -89.3886 -6.55824 8.38612 100.885 -97.2034 -36.4166 62.9375 -51.4182 3.69524 45.7828 7.2899 -2.00239 -75.4792 18.9253 1.12392 2.06687 5.59033 -4.47185 -0.831074 11.9144 -3.89204 2.37434 
-262.915 96.9867 -261.963 70.8712 -47.3604 75.5241 -167.134 32.1509 85.1909 -14.2067 16.4843 -2.54979 42.4874 -7.33076 3.3252 49.1689 27.6104 16.0955 174.375 33.1456 91.8945 -85.9782 -13.2212 -6.01764 116.419 -22.7273 -3.91399 4.75821 1.02088 -9.12445 1.30965 7.80274 -89.6187 11.2648 2.78379 0.482641 -0.403211 2.80234 0.359561 -22.958 2.50996 1.29745 -2.94538 2.50997 1.29746 87.3821 -42.5653 -107.062 32.5111 -11.8491 11.5662 -179.491 -29.5395 -96.6281 -8.96057 4.50048 112.544 -97.0488 -38.6338 64.136 -47.9375 1.83002 42.7077 8.92591 -1.89941 -77.4212 21.6582 1.34054 2.36713 3.33767 -3.80774 -1.09937 13.1013 -3.39051 1.03019 
-257.66 96.2822 -256.318 75.6058 -47.7128 79.0705 -166.532 25.5292 85.3022 -15.3914 20.2521 -3.07603 42.0818 -7.02316 8.51377 51.0277 25.1829 2.41945 174.652 19.5233 90.7671 -80.6514 -6.86377 -5.28886 118.279 -22.9966 -2.37833 9.04381 0.199394 -6.10776 1.16173 8.06163 -89.5363 10.7439 2.52724 0.68889 -0.924688 2.55509 0.576926 -23.4742 2.20332 1.41688 -3.46154 2.20332 1.41687 85.3088 -45.926 -109.295 32.2822 -14.3527 16.1471 -117.205 -24.0246 -81.862 -41.4095 -51.6081 118.982 -97.8592 -41.1899 63.8659 -42.9053 0.444646 38.8612 9.32836 -2.26448 -80.0878 23.9294 1.69156 3.23604 1.34864 -3.21988 -1.51024 14.6335 -2.96276 -0.221951 
-252.488 94.8535 -251.361 79.4071 -48.0932 81.078 -166.567 20.51 84.7675 -21.693 14.8875 -3.7807 50.868 4.41038 15.0735 48.7778 19.0837 -12.1713 173.975 14.9932 90.1199 -82.0962 0.827945 -5.31308 106.964 -17.9247 -3.43548 25.0055 -0.0427504 -1.98517 0.964237 8.31774 -89.2311 10.2242 2.27226 1.33318 -1.44533 2.32873 1.23185 -23.9856 1.76661 1.95448 -3.97294 1.76661 1.95447 82.7285 -49.4201 -112.044 32.2655 -15.0409 19.0857 23.1466 15.1626 -85.8524 -155.739 38.0277 -17.1191 -98.1996 -41.9992 63.6515 -37.8336 -1.61652 34.1407 10.2605 -2.43811 -83.4662 25.4898 2.18126 4.7702 0.119119 -2.61173 -4.08794 16.3019 -1.89124 0.513307 
-247.14 94.1312 -246.479 81.0625 -47.9861 81.7644 -167.755 14.5199 84.1398 -21.9164 13.0662 -3.24891 52.3426 10.0891 19.8744 52.6345 23.8139 -7.42578 172.97 23.8886 90.4181 -88.3467 9.98878 -5.47433 67.6687 -2.40506 -1.30087 59.6613 3.99865 9.94041 0.427131 8.62866 -88.7062 9.59919 1.43575 2.45663 -2.07311 1.54242 2.3911 -24.592 0.631327 2.77432 -4.57934 0.63134 2.77432 78.2519 -50.779 -118.134 33.8077 -14.2517 18.8325 -165.786 -25.0607 -113.601 11.9759 -7.11592 -118.102 -93.4684 -38.8089 70.2183 -36.041 -2.36182 25.5824 11.713 -2.285 -86.8769 27.4046 2.85845 6.70045 4.38337 -0.612438 -7.51063 14.4234 0.871877 0.822377 
-241.838 92.8752 -241.86 80.372 -43.9893 81.765 -170.067 13.2243 84.1924 -25.9172 16.5008 -2.58955 52.137 11.5322 24.1783 57.2142 28.8001 -5.61326 168.554 35.4372 90.0646 -88.3626 16.8504 -4.28491 40.5685 3.99991 4.05968 65.4788 9.01883 26.4779 0.113091 8.40083 -89.3167 10.0653 0.536493 1.31052 -1.60631 0.593623 1.28563 -24.1354 0.11789 1.41115 -4.12275 0.117896 1.41115 81.1071 -50.9355 -113.895 33.2727 -14.2415 26.1129 -11.3918 -7.69397 -60.8993 21.3952 4.44066 31.1407 -101.96 -43.9916 58.6428 -28.6634 -6.47338 21.299 11.8397 -2.3946 -89.6719 28.1222 2.86978 6.46694 4.00531 -0.608488 -1.85833 13.7694 -0.335017 -0.412843 
-235.866 91.7753 -236.45 80.1312 -40.5367 81.9233 -171.936 10.3492 85.0093 -29.2397 17.7448 -1.7617 54.0992 12.0911 22.3813 58.8275 31.7136 -2.23902 163.413 44.4625 91.3978 -86.3817 15.628 -2.40306 43.1244 3.85839 3.88584 41.7041 2.52626 25.2895 -0.433934 8.26506 -89.3626 10.3452 -0.572808 1.31566 -1.32632 -0.514345 1.33958 -23.8589 -0.94173 1.08271 -3.84621 -0.941718 1.08271 78.6952 -53.328 -116.468 32.6039 -14.2034 32.9286 -13.569 -10.8298 -59.0125 -11.9793 -1.20518 5.59157 -100.734 -41.8376 59.5982 -27.2145 -8.37911 16.3555 14.1642 -2.60479 -94.2402 29.4821 3.4625 8.01992 3.61591 0.71533 -2.92759 13.8341 1.27245 0.475682 
-229.471 91.0688 -229.824 81.0167 -37.3442 81.4015 -173.391 5.31957 86.145 -30.3567 21.7097 -1.1158 54.721 7.14484 16.3098 61.4938 35.6344 0.401104 164.185 49.4723 90.711 -80.8083 9.57101 -0.679008 53.242 1.86728 1.64712 24.5566 -1.50003 12.276 -1.09727 8.09137 -89.3213 10.7027 -1.87238 1.52097 -0.967865 -1.80365 1.6019 -23.5109 -2.24288 0.887803 -3.49821 -2.2429 0.887793 78.7425 -54.0264 -116.125 34.177 -15.7652 40.0858 -13.2737 -10.6334 -59.2112 -14.0197 -0.233138 -3.65219 -98.6226 -40.0626 62.1747 -27.34 -10.2652 13.8386 14.5014 -3.24719 -101.484 29.9512 3.37385 7.54433 1.37138 2.69267 -3.58098 14.1144 3.49341 2.00003 
-222.016 90.8986 -222.403 80.7252 -38.8424 82.2053 -172.852 -0.137858 90.3087 -28.0151 22.0955 -0.588937 53.2834 -1.1877 2.07254 52.6916 33.2064 17.5411 170.545 50.7327 90.2564 -67.6567 11.6058 1.03161 49.8868 2.0022 1.89233 39.6448 1.1105 11.3054 -1.25644 7.88904 -89.5576 11.1083 -2.29565 1.10346 -0.561127 -2.24485 1.20345 -23.112 -2.52109 0.362134 -3.09934 -2.52109 0.362132 79.4028 -51.978 -115.98 36.7352 -15.7282 46.3761 -15.015 -10.1154 -61.6723 -11.0166 -0.521959 -0.414324 -97.0857 -39.5177 64.4385 -26.9384 -11.5292 13.6271 14.4292 -4.32855 -109.311 30.9786 3.1392 6.41919 -0.254523 5.01747 -1.5673 13.7556 5.5064 2.42827 
-214.696 91.5442 -215.114 81.4902 -39.2188 84.2674 -172.592 -9.18658 92.322 -20.3625 23.4689 0.561546 42.8788 -10.047 -5.66731 44.3367 23.9903 26.78 175.715 48.1278 89.5625 -49.6216 7.97059 2.15221 51.7196 1.75228 1.59062 34.0997 0.270087 2.61808 -1.418 7.77458 -89.8405 11.335 -2.74751 0.59133 -0.333302 -2.71882 0.711757 -22.8916 -2.79812 -0.262406 -2.87899 -2.79813 -0.2624 80.6591 -51.0038 -114.532 37.5635 -15.0208 50.8022 -17.1234 -9.60049 -63.5056 -8.95354 -0.29492 -3.08979 -96.5748 -38.9063 65.0314 -25.843 -12.6742 16.0271 14.7441 -6.04287 -116.868 27.471 3.1847 7.83771 -1.17451 6.408 -2.11659 12.8745 7.32542 5.25164 
-207.847 92.336 -207.739 82.0499 -38.5917 83.7453 -174.435 -12.3499 92.8425 -20.4148 26.5731 1.62834 34.2244 -15.6851 -5.43819 31.2667 2.1359 8.339 179.577 43.8497 86.9044 -29.7418 6.6503 1.55842 47.2324 3.29819 3.04077 29.03 -0.40729 6.20401 -1.77762 7.69881 -89.8864 11.4895 -3.4836 0.581529 -0.176938 -3.45461 0.734448 -22.7493 -3.49713 -0.493642 -2.73661 -3.49711 -0.493633 81.2235 -49.4858 -114.275 36.8034 -13.555 52.2754 -17.9128 -8.53966 -64.6858 -7.01238 -0.188101 -5.28375 -96.2143 -38.8679 65.611 -25.8285 -11.8156 17.7232 16.3602 -8.02331 -120.113 25.7663 2.67489 6.63433 -1.52148 7.98349 -0.56636 12.6622 8.68748 5.41468 
-201.12 92.3223 -200.614 81.6299 -38.8259 81.8614 -175.743 -9.56844 91.1303 -30.7864 21.9911 2.06256 37.6592 -13.6537 -3.17648 27.0173 -2.62251 4.10795 -178.724 42.0276 85.4397 -19.9266 5.84483 0.542922 41.5539 4.97363 4.94973 28.9931 -0.197016 3.44928 -1.949 7.58237 -89.8934 11.7254 -3.8264 0.614745 0.0597894 -3.79562 0.78278 -22.5202 -3.834 -0.565404 -2.50757 -3.83398 -0.565409 82.7128 -46.5125 -113.148 37.2403 -11.4748 51.5292 -19.6359 -7.42465 -66.3112 -7.74695 -0.156508 -5.70626 -96.1534 -39.53 65.9703 -26.857 -8.2507 18.2899 20.4535 -9.44531 -115.898 24.6684 2.66906 7.0703 -0.862505 9.15211 3.36063 12.277 8.97998 3.08943 
